<?xml version="1.0" standalone="no"?><!DOCTYPE svg PUBLIC "-//W3C//DTD SVG 1.1//EN" "http://www.w3.org/Graphics/SVG/1.1/DTD/svg11.dtd"><svg t="1713590624633" class="icon" viewBox="0 0 1024 1024" version="1.1" xmlns="http://www.w3.org/2000/svg" p-id="1556" xmlns:xlink="http://www.w3.org/1999/xlink" width="200" height="200"><path d="M1002.8 380c-22.5 24.3-45 48.7-67.9 73.4-51.6-54.2-100.1-105.1-150.3-157.7-2 4.1-1.4 1.4 0.2-0.3 95.4-95.5 84.4-72.8 156.5-4.4 20.4 19.4 40.9 38.6 61.4 57.9 0.1 10.4 0.1 20.8 0.1 31.1z" p-id="1557"></path><path d="M439 82.7c13.1-24.4 22.9-42.7 32.7-60.9 10.6 18.6 21.1 37.2 35 61.6h66.9c13.3-22.6 24.9-42.1 36.4-61.7 9.5 18.1 19.1 36.2 33.7 63.8 38 12.7 116.1-28.2 134.4 57.5 10.6 49.9 10.7 101.5-53.1 130.5 0-33-1.9-64.6 0.5-95.9 2.4-31.4-9.6-42.3-40-38.7-16.4 1.9-33.3 0.3-42.3 0.3-13.9 18.3-23.6 31.1-33.3 43.9-10.4-12.1-20.7-24.2-36.1-42.1h-63.2c-16.5 16.5-29.3 29.3-42.2 42.1-8-12.8-15.9-25.6-26.3-42.3h-70.4c-15.2 17-26.4 29.7-37.7 42.4-9-12.1-18.1-24.2-31.4-42h-77.1c-13.3 15.8-24.3 28.9-35.3 42-9.1-11.7-18.3-23.3-27.4-35 1.6-1.3 3.3-2.6 4.9-3.9-2.1-1.3-4.2-3.6-6.4-3.8-83.6-6.1-83.6-6.1-83.6 78.4 0 226.2 0.7 452.3-0.8 678.5-0.2 36.8 9.8 49 47.7 48.7 184.8-1.8 369.6-1.7 554.4 0 35.8 0.3 48.1-9.7 45.7-45.9-3-45 3-90.8-1.7-135.5-4.7-44.6 17.1-69.1 56.1-94.9v196.3c0 126.7-7.2 134-132.5 134-174.5 0-348.9 0.1-523.4 0-80.6 0-103.6-23.1-103.6-103.6V194.8c0-90.2 18.2-108.4 108.7-108.9 11.5-0.1 23 0 32.9 0 17.7-20.1-9.1-62 31.3-61.5 9.5 0.1 18.5 34 30.8 58.5h86c14.7-17.3-12.9-59.2 28.1-58.5 10 0.2 19.3 33.7 32.4 58.4 18.4-0.1 47.1-0.1 69.2-0.1z" p-id="1558"></path><path d="M749.8 329.4c49.9 52.7 97.7 103.2 148.2 156.5-3.6 3.9-11.6 13.3-20.5 22.1C768.2 615.9 658.8 723.9 549 831.4c-9.8 9.6-21.6 19.2-34.3 23.5-61.1 20.4-122.8 39.1-184.4 58-5.6 1.7-12.2 0.2-27.9 0.2 43-98 35.6-213.3 146.6-281.8-18.3-2.4-27.4-4.6-36.5-4.7-54.2-0.3-108.5 1.4-162.7-1-17.8-0.8-50.7-13.7-50.2-17.9 3.9-32.8 32.6-20.4 52-20.8 67.1-1.4 134.4 1.2 201.4-1.6 19.5-0.8 42.8-10.1 56.9-23.4C580.6 495.8 648.8 427 718 359.2c10.1-9.9 20.5-19.2 31.8-29.8z m-0.2 69.2c-3.9-4.6-7.5-11.5-9.8-11.1-8.1 1.5-17.7 3.5-23.3 8.9-91.7 88.9-183 178.1-273.6 268-6 6-5.4 18.6-7.9 28.1 9.8-3 22.5-3.1 29.1-9.5 90.9-87.8 181-176.4 271.1-265.1 5.3-5.1 8.9-11.9 14.4-19.3zM387.9 736.4c-0.4 41.8-40.9 69.6-2.1 106.2 38 35.9 63.2-6.2 94.3-6-30.1-32.7-57.7-62.6-92.2-100.2z" p-id="1559"></path><path d="M399.8 436.1c54.2 0 108.5-1.3 162.6 1 11.4 0.5 22.2 14.3 33.2 22-10.8 6.6-21.4 18.9-32.3 19.1-111 1.4-222 1.5-332.9-0.1-11.2-0.2-22.1-14.3-33.1-21.9 10.7-6.7 21.3-18.7 32.3-19.1 56.6-2 113.4-1 170.2-1zM396 295.1c55.4 0 110.9-1.2 166.2 1 11.3 0.5 22.1 13.9 33.1 21.3-10.8 6.4-21.5 18.2-32.4 18.3-110.8 1.4-221.7 1.5-332.5-0.2-11.2-0.2-22.1-14-33.2-21.4 10.8-6.3 21.5-17.8 32.5-18.2 55.5-1.8 110.9-0.8 166.3-0.8z" p-id="1560"></path></svg>