<?xml version="1.0" standalone="no"?><!DOCTYPE svg PUBLIC "-//W3C//DTD SVG 1.1//EN" "http://www.w3.org/Graphics/SVG/1.1/DTD/svg11.dtd"><svg t="1713597483447" class="icon" viewBox="0 0 1024 1024" version="1.1" xmlns="http://www.w3.org/2000/svg" p-id="3223" xmlns:xlink="http://www.w3.org/1999/xlink" width="200" height="200"><path d="M928 384a256 256 0 0 0-302.4-251.52L621.12 128H416a96 96 0 0 0-96 96 96 96 0 0 0-96 96v64H192a96 96 0 0 0-96 96v352a96 96 0 0 0 96 96h640a96 96 0 0 0 96-96V480a93.12 93.12 0 0 0-7.36-35.84A256 256 0 0 0 928 384z" fill="#FFFFFF" p-id="3224"></path><path d="M672 384m-224 0a224 224 0 1 0 448 0 224 224 0 1 0-448 0Z" fill="#E9EAEB" p-id="3225"></path><path d="M128 416m64 0l640 0q64 0 64 64l0 352q0 64-64 64l-640 0q-64 0-64-64l0-352q0-64 64-64Z" fill="#FFFFFF" p-id="3226"></path><path d="M672 736h-256a64 64 0 0 1-64-64V224a64 64 0 0 1 64-64h192l128 128v384a64 64 0 0 1-64 64z" fill="#FFFFFF" p-id="3227"></path><path d="M576 832h-256a64 64 0 0 1-64-64V320a64 64 0 0 1 64-64h192l128 128v384a64 64 0 0 1-64 64z" fill="#FFFFFF" p-id="3228"></path><path d="M704 640v128H320v-128H128v192a64 64 0 0 0 64 64h640a64 64 0 0 0 64-64v-192z" fill="#A3D4FF" p-id="3229"></path><path d="M832 416h-64v32h64a32 32 0 0 1 32 32v160h-128V288l-128-128h-192a64 64 0 0 0-64 64v32h-32a64 64 0 0 0-64 64v320H160v-160a32 32 0 0 1 32-32h32v-32H192a64 64 0 0 0-64 64v352a64 64 0 0 0 64 64h640a64 64 0 0 0 64-64V480a64 64 0 0 0-64-64z m-192 320h32a64 64 0 0 0 32-8.64V768h-64zM384 224a32 32 0 0 1 32-32h178.88L704 301.12V672a32 32 0 0 1-32 32h-32V384l-128-128h-128z m-96 96a32 32 0 0 1 32-32h178.88L608 397.12V768h-288v-128H288z m576 512a32 32 0 0 1-32 32H192a32 32 0 0 1-32-32v-160h128v128h448v-128h128z" fill="#2A5082" p-id="3230"></path><path d="M384 320h-64v32h64v-32zM544 416h-128v32h128v-32zM384 416h-64v32h64v-32zM480 512h-64v32h64v-32zM384 512h-64v32h64v-32z" fill="#2A5082" p-id="3231"></path></svg>