<?xml version="1.0" standalone="no"?><!DOCTYPE svg PUBLIC "-//W3C//DTD SVG 1.1//EN" "http://www.w3.org/Graphics/SVG/1.1/DTD/svg11.dtd"><svg t="1713879579605" class="icon" viewBox="0 0 1024 1024" version="1.1" xmlns="http://www.w3.org/2000/svg" p-id="17550" xmlns:xlink="http://www.w3.org/1999/xlink" width="200" height="200"><path d="M512 784.98828125v-13.97460938c0-3.69140625 0.26367188-8.0859375 0.87890625-13.00781249H294.3828125c-15.29296875 0-28.4765625-5.53710938-39.375-16.69921876-10.8984375-11.16210938-16.34765625-24.78515625-16.34765625-40.86914062s5.44921875-29.8828125 16.34765625-41.30859375c10.8984375-11.42578125 23.99414063-17.13867188 39.375-17.13867187h257.43164063c22.41210938-36.5625 52.03125-65.65429688 88.94531249-87.27539063 36.82617188-21.70898438 77.43164063-32.51953125 121.640625-32.51953125 4.74609375 0 9.66796875 0.17578125 15.02929688 0.52734375 5.2734375 0.26367188 10.63476563 0.703125 15.90820312 1.40625V294.03125h-129.19921874c-16.5234375 0-30.67382813-3.8671875-42.45117188-11.6015625-11.77734375-7.734375-21.35742188-17.31445313-28.74023438-28.828125-7.3828125-11.33789063-12.74414063-23.90625-16.34765625-37.52929688-3.515625-13.62304688-5.36132813-26.27929688-5.36132812-38.14453125V62H161.22851562c-8.52539063 0-16.96289063 3.33984375-23.46679687 10.10742188-6.50390625 6.85546875-9.66796875 15.73242188-9.66796875 24.69726562v801.82617188c0 8.87695313 3.25195313 17.84179688 9.66796875 24.69726562 6.50390625 6.76757813 14.94140625 10.10742188 23.46679688 10.10742188h78.48632812c0.79101563 0.08789063 1.66992188 0.08789063 2.4609375 0.08789062h314.03320313c-14.15039063-21.00585938-25.04882813-44.03320313-32.69531251-69.08203125-7.734375-25.13671875-11.51367188-51.6796875-11.51367187-79.453125zM255.0078125 426.74609375c10.8984375-11.16210938 23.99414063-16.61132813 39.375-16.61132813h331.69921875c15.29296875 0 28.4765625 5.53710938 39.375 16.61132813 10.8984375 11.16210938 16.34765625 24.78515625 16.34765625 40.86914063s-5.44921875 29.8828125-16.34765625 41.30859375c-10.8984375 11.42578125-24.08203125 17.13867188-39.375 17.13867187H294.3828125c-15.38085938 0-28.4765625-5.71289063-39.375-17.13867187-10.8984375-11.42578125-16.34765625-25.22460938-16.34765625-41.30859375-0.08789063-16.171875 5.44921875-29.79492188 16.34765625-40.86914063z m663.75 268.9453125c-9.66796875-23.203125-22.8515625-43.41796875-39.375-60.8203125-16.61132813-17.40234375-35.94726563-31.20117188-58.09570313-41.39648438-22.06054688-10.10742188-45.87890625-15.20507813-71.27929687-15.20507812-24.87304688 0-48.33984375 5.09765625-70.48828125 15.20507812-22.06054688 10.10742188-41.484375 23.99414063-58.0078125 41.39648438-16.61132813 17.40234375-29.70703125 37.6171875-39.375 60.8203125-9.66796875 23.203125-14.50195313 47.8125-14.50195313 74.00390625 0 26.63085938 4.83398438 51.6796875 14.50195313 74.8828125 9.66796875 23.203125 22.8515625 43.41796875 39.375 60.8203125 16.61132813 17.40234375 35.94726563 31.20117188 58.0078125 41.39648438 22.1484375 10.10742188 45.61523438 15.20507813 70.48828125 15.20507812 25.40039063 0 49.21875-5.09765625 71.27929688-15.20507812 22.1484375-10.10742188 41.484375-23.99414063 58.09570312-41.39648438 16.5234375-17.40234375 29.70703125-37.6171875 39.375-60.8203125 9.66796875-23.203125 14.50195313-48.1640625 14.50195312-74.8828125 0-26.10351563-4.83398438-50.80078125-14.50195312-74.00390625z m-45.43945313 91.93359375c-5.2734375 5.36132813-11.42578125 8.0859375-18.6328125 8.17382813l-78.74999999 1.31835937-1.93359375 80.5078125c-0.17578125 7.29492188-2.8125 13.53515625-8.0859375 18.89648438-5.2734375 5.36132813-11.42578125 8.0859375-18.6328125 8.17382812-7.11914063 0.17578125-13.27148438-2.37304688-18.28125-7.47070313-5.09765625-5.18554688-7.55859375-11.33789063-7.47070313-18.63281249l1.31835938-79.89257813-79.36523438 0.703125c-7.11914063 0.17578125-13.27148438-2.37304688-18.28125-7.47070313-5.09765625-5.18554688-7.55859375-11.33789063-7.47070312-18.63281249 0.17578125-7.29492188 2.8125-13.62304688 8.0859375-18.98437501 5.2734375-5.2734375 11.42578125-7.99804688 18.6328125-8.08593749l79.27734375-2.02148438 1.31835937-79.89257813c0.08789063-7.29492188 2.8125-13.53515625 8.0859375-18.89648437 5.2734375-5.36132813 11.42578125-7.99804688 18.6328125-8.17382812 7.20703125-0.08789063 13.27148438 2.37304688 18.36914063 7.55859375 5.09765625 5.18554688 7.55859375 11.33789063 7.47070312 18.6328125l-0.703125 80.50781249 78.75-1.40625c7.20703125-0.08789063 13.27148438 2.37304688 18.36914063 7.55859375 5.09765625 5.18554688 7.55859375 11.33789063 7.47070312 18.6328125-0.26367188 7.29492188-2.90039063 13.53515625-8.17382812 18.89648438zM686.55078125 255.27148437h106.78710938V108.23046875c0-9.4921875-3.42773438-18.984375-10.37109376-26.27929688-6.94335938-7.20703125-15.99609375-10.81054688-25.04882812-10.81054687H615.79882813v109.86328125c0 18.984375 6.94335938 37.96875 20.74218749 52.55859375 13.79882813 14.4140625 31.9921875 21.70898438 50.00976563 21.70898438z" fill="#4f7ce4" p-id="17551"></path></svg>