<?xml version="1.0" standalone="no"?><!DOCTYPE svg PUBLIC "-//W3C//DTD SVG 1.1//EN" "http://www.w3.org/Graphics/SVG/1.1/DTD/svg11.dtd"><svg t="1713590933463" class="icon" viewBox="0 0 1024 1024" version="1.1" xmlns="http://www.w3.org/2000/svg" p-id="11530" xmlns:xlink="http://www.w3.org/1999/xlink" width="200" height="200"><path d="M827.733333 740.266667c0 27.733333-23.466667 49.066667-51.2 49.066666H145.066667L234.666667 386.133333c0-27.733333 23.466667-49.066667 51.2-49.066666h582.4c27.733333 0 51.2 21.333333 51.2 49.066666l-91.733334 354.133334z" fill="#EA9A1E" p-id="11531"></path><path d="M245.333333 300.8h569.6v-49.066667c0-27.733333-23.466667-49.066667-51.2-49.066666H460.8V155.733333c0-27.733333-21.333333-49.066667-49.066667-49.066666H157.866667C130.133333 106.666667 106.666667 128 106.666667 155.733333v582.4l89.6-390.4c0-25.6 21.333333-46.933333 49.066666-46.933333z" fill="#EA9A1E" p-id="11532"></path><path d="M682.666667 448c-130.133333 0-234.666667 104.533333-234.666667 234.666667s104.533333 234.666667 234.666667 234.666666 234.666667-104.533333 234.666666-234.666666-104.533333-234.666667-234.666666-234.666667z" fill="#0C8A26" p-id="11533"></path><path d="M814.933333 646.4h-96v-96h-72.533333v96h-96v72.533333h96v96h72.533333v-96h96z" fill="#FFFFFF" p-id="11534"></path></svg>