<?xml version="1.0" standalone="no"?><!DOCTYPE svg PUBLIC "-//W3C//DTD SVG 1.1//EN" "http://www.w3.org/Graphics/SVG/1.1/DTD/svg11.dtd"><svg t="1713590885155" class="icon" viewBox="0 0 1024 1024" version="1.1" xmlns="http://www.w3.org/2000/svg" p-id="9664" xmlns:xlink="http://www.w3.org/1999/xlink" width="200" height="200"><path d="M320 64h448c35.3472 0 64 28.6528 64 64v576c0 35.3472-28.6528 64-64 64H320c-35.3472 0-64-28.6528-64-64V128c0-35.3472 28.6528-64 64-64z" fill="#5291DA" p-id="9665"></path><path d="M192 160h384l160 160v512c0 35.3472-28.6528 64-64 64H192c-35.3472 0-64-28.6528-64-64V224c0-35.3472 28.6528-64 64-64z" fill="#99D2FF" p-id="9666"></path><path d="M704 960c-106.0384 0-192-85.9616-192-192s85.9616-192 192-192 192 85.9616 192 192-85.9616 192-192 192z" fill="#34A6FF" p-id="9667"></path><path d="M256 320h288c17.6736 0 32 14.3264 32 32s-14.3264 32-32 32H256c-17.6736 0-32-14.3264-32-32s14.3264-32 32-32zM256 512h224c17.6736 0 32 14.3264 32 32s-14.3264 32-32 32H256c-17.6736 0-32-14.3264-32-32s14.3264-32 32-32zM256 704h160c17.6736 0 32 14.3264 32 32s-14.3264 32-32 32H256c-17.6736 0-32-14.3264-32-32s14.3264-32 32-32z" fill="#FFFFFF" p-id="9668"></path><path d="M576 160l160 160h-96c-35.3472 0-64-28.6528-64-64V160z" fill="#D9F0FF" p-id="9669"></path><path d="M672 736v-64c0-17.6736 14.3264-32 32-32s32 14.3264 32 32v64h64c17.6736 0 32 14.3264 32 32s-14.3264 32-32 32h-64v64c0 17.6736-14.3264 32-32 32s-32-14.3264-32-32v-64h-64c-17.6736 0-32-14.3264-32-32s14.3264-32 32-32h64z" fill="#FFFFFF" p-id="9670"></path></svg>