<?xml version="1.0" standalone="no"?><!DOCTYPE svg PUBLIC "-//W3C//DTD SVG 1.1//EN" "http://www.w3.org/Graphics/SVG/1.1/DTD/svg11.dtd"><svg t="1713881350400" class="icon" viewBox="0 0 1024 1024" version="1.1" xmlns="http://www.w3.org/2000/svg" p-id="67766" xmlns:xlink="http://www.w3.org/1999/xlink" width="200" height="200"><path d="M893.622857 251.702857H512L399.725714 117.028571H130.377143a44.891429 44.891429 0 0 0-44.982857 44.891429v718.445714a44.891429 44.891429 0 0 0 44.982857 44.891429h763.245714a44.891429 44.891429 0 0 0 44.982857-44.891429V296.594286a44.891429 44.891429 0 0 0-44.982857-44.891429z m8.411429 261.12H121.965714v-73.142857h780.068572z" fill="#1296db" p-id="67767" data-spm-anchor-id="a313x.search_index.0.i57.462b3a81X0wNmc" class=""></path><path d="M893.622857 215.131429H529.097143L427.885714 93.622857a36.571429 36.571429 0 0 0-28.16-13.165714H130.377143a81.645714 81.645714 0 0 0-81.554286 81.462857v718.445714a81.645714 81.645714 0 0 0 81.554286 81.462857h763.245714a81.645714 81.645714 0 0 0 81.554286-81.462857V296.594286a81.645714 81.645714 0 0 0-81.554286-81.462857z m8.411429 665.234285a8.411429 8.411429 0 0 1-8.411429 8.32H130.377143a8.411429 8.411429 0 0 1-8.411429-8.32V161.92a8.411429 8.411429 0 0 1 8.411429-8.32h252.251428l101.302858 121.508571A36.571429 36.571429 0 0 0 512 288.274286h381.622857a8.411429 8.411429 0 0 1 8.411429 8.32z" fill="#1296db" p-id="67768" data-spm-anchor-id="a313x.search_index.0.i58.462b3a81X0wNmc" class=""></path><path d="M85.394286 439.68h36.571428v73.142857h-36.571428zM902.034286 439.68h36.571428v73.142857h-36.571428z" fill="#FFFFFF" p-id="67769"></path><path d="M121.965714 341.577143v269.348571a36.571429 36.571429 0 0 1-73.142857 0V341.577143a36.571429 36.571429 0 0 1 73.142857 0zM975.177143 341.577143v269.348571a36.571429 36.571429 0 0 1-73.142857 0V341.577143a36.571429 36.571429 0 1 1 73.142857 0z" fill="#1296db" p-id="67770" data-spm-anchor-id="a313x.search_index.0.i59.462b3a81X0wNmc" class=""></path><path d="M749.714286 749.714286m-237.714286 0a237.714286 237.714286 0 1 0 475.428571 0 237.714286 237.714286 0 1 0-475.428571 0Z" fill="#2B8EDA" p-id="67771" data-spm-anchor-id="a313x.search_index.0.i60.462b3a81X0wNmc" class="selected"></path><path d="M749.714286 1024a274.285714 274.285714 0 1 1 274.285714-274.285714 274.285714 274.285714 0 0 1-274.285714 274.285714z m0-475.428571a201.142857 201.142857 0 1 0 201.142857 201.142857 201.142857 201.142857 0 0 0-201.142857-201.142857z" fill="#2B8EDA" p-id="67772"></path><path d="M753.554286 950.217143a36.571429 36.571429 0 0 1-36.571429-36.571429V589.622857a36.571429 36.571429 0 0 1 73.142857 0v324.022857a36.571429 36.571429 0 0 1-36.571428 36.571429z" fill="#FFFFFF" p-id="67773"></path><path d="M915.565714 788.205714H591.451429a36.571429 36.571429 0 0 1 0-73.142857h324.114285a36.571429 36.571429 0 0 1 0 73.142857z" fill="#FFFFFF" p-id="67774"></path></svg>