<?xml version="1.0" standalone="no"?><!DOCTYPE svg PUBLIC "-//W3C//DTD SVG 1.1//EN" "http://www.w3.org/Graphics/SVG/1.1/DTD/svg11.dtd"><svg t="1713610636636" class="icon" viewBox="0 0 1024 1024" version="1.1" xmlns="http://www.w3.org/2000/svg" p-id="11612" xmlns:xlink="http://www.w3.org/1999/xlink" width="200" height="200"><path d="M208.704 283.52c-13.728 0-22.848 9.12-22.848 22.848s9.12 22.88 22.848 22.88c13.76 0 22.88-9.152 22.88-22.88 0-13.76-9.152-22.88-22.88-22.88z m-94.336 0c-13.728 0-22.88 9.12-22.88 22.848s9.152 22.88 22.88 22.88 22.88-9.152 22.88-22.88c0-13.76-9.152-22.88-22.88-22.88z m185.824 0c-13.728 0-22.848 9.12-22.848 22.848s9.12 22.88 22.848 22.88c13.76 0 22.88-9.152 22.88-22.88 0-13.76-9.152-22.88-22.88-22.88zM739.552 192H92.48A92.704 92.704 0 0 0 0 284.448v647.104C0 982.4 41.6 1024 92.448 1024H739.52C790.432 1024 832 982.4 832 931.552V284.48C832 233.6 790.4 192 739.552 192z m46.72 740.032a46.4 46.4 0 0 1-46.304 46.208H92.032a46.4 46.4 0 0 1-46.272-46.208V423.584h740.48v508.448z m0-548.48H45.76V286.336c0-26.72 20.8-48.576 46.272-48.576h647.936c25.472 0 46.272 21.856 46.272 48.576v97.216z" fill="#3364FF" p-id="11613"></path><path d="M931.552 0H284.48A92.704 92.704 0 0 0 192 92.448v23.104c0 13.856 9.248 23.104 23.104 23.104 13.888 0 23.136-9.248 23.136-23.104V92.48c0-25.44 20.8-46.24 46.208-46.24h647.104c25.44 0 46.24 20.8 46.24 46.24V739.52c0 25.44-20.8 46.24-46.24 46.24h-23.104c-13.856 0-23.104 9.248-23.104 23.104s9.248 23.104 23.104 23.104h23.104C982.4 832 1024 790.4 1024 739.552V92.48C1024 41.6 982.4 0 931.552 0z" fill="#3364FF" p-id="11614"></path><path d="M358.272 549.632l172.864-2.752a27.744 27.744 0 0 1 28.384 28.352l-2.752 172.864a29.984 29.984 0 0 1-29.312 29.28 27.776 27.776 0 0 1-28.352-28.352l1.696-103.424-204.16 204.16a28.352 28.352 0 0 1-40.032-40.032l204.096-204.128-103.392 1.696a27.776 27.776 0 0 1-28.352-28.352 29.984 29.984 0 0 1 29.312-29.312z" fill="#3364FF" p-id="11615"></path></svg>