<?xml version="1.0" standalone="no"?><!DOCTYPE svg PUBLIC "-//W3C//DTD SVG 1.1//EN" "http://www.w3.org/Graphics/SVG/1.1/DTD/svg11.dtd"><svg t="1713879850683" class="icon" viewBox="0 0 1092 1024" version="1.1" xmlns="http://www.w3.org/2000/svg" p-id="20269" xmlns:xlink="http://www.w3.org/1999/xlink" width="213.28125" height="200"><path d="M175.060759 1017.105076A177.493097 177.493097 0 0 1 0.093525 834.01412V579.24326a177.902696 177.902696 0 0 1 174.967234-182.954423h459.160987a177.493097 177.493097 0 0 1 174.967234 182.954423v261.802317a177.902696 177.902696 0 0 1-174.967234 182.886156z m-94.207875-430.830359v261.802318a94.139608 94.139608 0 0 0 94.207875 98.508668h459.160987a94.139608 94.139608 0 0 0 94.207875-98.508668V579.24326a94.139608 94.139608 0 0 0-94.207875-98.508669H175.060759a100.420133 100.420133 0 0 0-94.207875 105.540126z m778.238963 286.719618v-89.156148h30.924758a109.226521 109.226521 0 0 0 109.226521-114.073448V308.361488a109.226521 109.226521 0 0 0-109.226521-114.073448H265.036105a116.053179 116.053179 0 0 0-109.226521 122.265437v30.037293H62.420909V211.559483a218.453042 218.453042 0 0 1 51.882597-142.472343 202.75173 202.75173 0 0 1 30.10556-28.194096A194.696274 194.696274 0 0 1 220.594565 4.916559a202.000797 202.000797 0 0 1 44.44154-4.98346h624.707434a197.15387 197.15387 0 0 1 77.687363 15.974378 200.567199 200.567199 0 0 1 34.133288 18.909842 203.843995 203.843995 0 0 1 30.173826 25.258633 206.711191 206.711191 0 0 1 25.053834 30.993025 210.602386 210.602386 0 0 1 19.046374 36.113019 217.360777 217.360777 0 0 1 12.083184 40.482079 230.672759 230.672759 0 0 1 4.437328 43.895408v450.081533a225.621033 225.621033 0 0 1-3.891195 41.847411 221.183705 221.183705 0 0 1-11.332252 39.389814 216.405045 216.405045 0 0 1-18.090642 35.908219 209.71492 209.71492 0 0 1-24.166368 31.539158 202.273864 202.273864 0 0 1-29.69596 26.214365 194.491474 194.491474 0 0 1-73.18177 32.563157 202.273864 202.273864 0 0 1-42.25701 4.437327z" fill="#0080FF" p-id="20270"></path></svg>