<?xml version="1.0" standalone="no"?><!DOCTYPE svg PUBLIC "-//W3C//DTD SVG 1.1//EN" "http://www.w3.org/Graphics/SVG/1.1/DTD/svg11.dtd"><svg t="1713590753128" class="icon" viewBox="0 0 1024 1024" version="1.1" xmlns="http://www.w3.org/2000/svg" p-id="2521" xmlns:xlink="http://www.w3.org/1999/xlink" width="200" height="200"><path d="M142.933333 768c74.666667 132.266667 217.6 213.333333 369.066667 213.333333 234.666667 0 426.666667-192 426.666667-426.666666 0-74.666667-19.2-149.333333-57.6-213.333334-12.8-21.333333-38.4-27.733333-57.6-14.933333-21.333333 12.8-27.733333 38.4-14.933334 57.6 29.866667 51.2 44.8 110.933333 44.8 170.666667 0 187.733333-153.6 341.333333-341.333333 341.333333-121.6 0-234.666667-66.133333-296.533333-170.666667C187.733333 674.133333 170.666667 614.4 170.666667 554.666667c0-157.866667 108.8-292.266667 256-330.666667v36.266667c0 29.866667 32 49.066667 57.6 34.133333l153.6-89.6c25.6-14.933333 25.6-51.2 0-66.133333l-153.6-89.6c-25.6-17.066667-57.6 2.133333-57.6 32v55.466666C232.533333 177.066667 85.333333 347.733333 85.333333 554.666667c0 74.666667 19.2 149.333333 57.6 213.333333" fill="#2F3CF4" p-id="2522"></path></svg>