<?xml version="1.0" standalone="no"?><!DOCTYPE svg PUBLIC "-//W3C//DTD SVG 1.1//EN" "http://www.w3.org/Graphics/SVG/1.1/DTD/svg11.dtd"><svg t="1713880111191" class="icon" viewBox="0 0 1028 1024" version="1.1" xmlns="http://www.w3.org/2000/svg" p-id="35094" xmlns:xlink="http://www.w3.org/1999/xlink" width="200.78125" height="200"><path d="M51.498667 42.666667h925.312c13.653333 0 26.752 5.546667 36.437333 15.402666 9.642667 9.856 15.061333 23.253333 15.061333 37.205334v840.021333c0 13.952-5.418667 27.306667-15.061333 37.205333a50.944 50.944 0 0 1-36.437333 15.36H51.498667c-13.653333 0-26.752-5.546667-36.394667-15.36a53.205333 53.205333 0 0 1-15.104-37.205333V95.274667c0-13.952 5.418667-27.306667 15.104-37.205334C24.746667 48.213333 37.845333 42.666667 51.498667 42.666667z m51.541333 104.96v735.36h822.272V147.584H103.04zM514.176 672.853333h308.437333v104.874667h-308.48V672.853333z m-171.52-157.568L197.461333 366.890667l72.789334-74.368 218.026666 222.72-218.026666 222.805333-72.789334-74.368 145.28-148.394667z" fill="#2B85FB" p-id="35095"></path></svg>